<?xml version="1.0" standalone="no"?>
<!DOCTYPE svg PUBLIC "-//W3C//DTD SVG 20010904//EN"
 "http://www.w3.org/TR/2001/REC-SVG-20010904/DTD/svg10.dtd">
<svg version="1.0" xmlns="http://www.w3.org/2000/svg"
 width="64.000000pt" height="64.000000pt" viewBox="0 0 64.000000 64.000000"
 preserveAspectRatio="xMidYMid meet">

<g transform="translate(0.000000,64.000000) scale(0.100000,-0.100000)"
fill="#000000" stroke="none">
<path d="M0 320 l0 -240 320 0 320 0 0 240 0 240 -320 0 -320 0 0 -240z m560
193 c0 -15 -225 -233 -240 -233 -14 0 -53 38 -195 188 l-49 52 242 0 c133 0
242 -3 242 -7z m-430 -270 c-41 -43 -78 -80 -82 -81 -5 -2 -8 70 -8 160 l0
163 82 -82 82 -82 -74 -78z m470 71 c0 -86 -3 -154 -7 -152 -5 2 -42 38 -82
81 l-75 78 74 74 c41 41 78 75 82 75 5 0 8 -70 8 -156z m-335 -54 c25 -28 82
-27 112 2 l24 22 82 -82 82 -82 -245 0 -245 0 80 80 c44 44 82 80 86 80 3 0
14 -9 24 -20z"/>
</g>
</svg>
