<?xml version="1.0" standalone="no"?>
<!DOCTYPE svg PUBLIC "-//W3C//DTD SVG 20010904//EN"
 "http://www.w3.org/TR/2001/REC-SVG-20010904/DTD/svg10.dtd">
<svg version="1.0" xmlns="http://www.w3.org/2000/svg"
 width="64.000000pt" height="64.000000pt" viewBox="0 0 64.000000 64.000000"
 preserveAspectRatio="xMidYMid meet">

<g transform="translate(0.000000,64.000000) scale(0.100000,-0.100000)"
fill="#000000" stroke="none">
<path d="M224 626 c-168 -53 -255 -232 -200 -412 18 -60 18 -62 -2 -135 -11
-40 -20 -75 -18 -76 1 -1 38 7 81 18 77 20 82 20 128 4 110 -40 233 -14 321
66 74 67 100 129 101 234 0 68 -4 89 -28 137 -68 139 -235 210 -383 164z m175
-52 c64 -19 131 -77 162 -142 48 -98 16 -242 -69 -312 -73 -60 -188 -77 -270
-40 -38 17 -50 18 -88 9 -25 -7 -47 -9 -50 -6 -3 3 0 23 7 45 10 35 9 46 -7
79 -26 55 -30 153 -9 209 31 80 94 139 174 160 62 17 88 17 150 -2z"/>
<path d="M176 445 c-23 -36 -20 -75 12 -126 52 -80 149 -148 215 -149 70 0
104 66 47 95 -39 20 -55 19 -72 -6 -13 -21 -15 -21 -44 -6 -17 9 -45 32 -63
52 -30 35 -31 38 -17 60 14 21 13 27 -1 64 -19 49 -51 56 -77 16z"/>
</g>
</svg>
